<svg id="svg" version="1.1" xmlns="http://www.w3.org/2000/svg" xmlns:xlink="http://www.w3.org/1999/xlink" width="400" height="164.57142857142858" viewBox="0, 0, 400,164.57142857142858"><g id="svgg"><path id="path0" d="M65.833 82.250 L 65.833 99.000 82.518 99.000 L 99.202 99.000 98.030 97.708 C 97.385 96.998,96.232 95.798,95.468 95.043 L 94.079 93.669 82.581 93.626 L 71.083 93.583 71.083 82.250 L 71.083 70.917 82.581 70.874 L 94.079 70.831 95.468 69.457 C 96.232 68.702,97.385 67.502,98.030 66.792 L 99.202 65.500 82.518 65.500 L 65.833 65.500 65.833 82.250 M96.487 66.944 C 96.265 67.188,95.564 67.938,94.929 68.610 L 93.775 69.833 81.971 69.833 L 70.167 69.833 70.167 82.250 L 70.167 94.667 81.971 94.667 L 93.775 94.667 94.929 95.890 C 95.564 96.562,96.265 97.312,96.487 97.556 L 96.891 98.000 81.862 98.000 L 66.833 98.000 66.833 82.250 L 66.833 66.500 81.862 66.500 L 96.891 66.500 96.487 66.944 M210.003 71.292 C 210.005 71.360,210.116 72.129,210.250 73.000 C 210.384 73.871,210.495 75.342,210.497 76.270 L 210.500 77.956 211.125 78.060 C 211.469 78.117,211.833 78.164,211.933 78.165 C 212.052 78.166,212.156 77.388,212.229 75.958 C 212.291 74.744,212.388 73.169,212.445 72.458 L 212.548 71.167 211.274 71.167 C 210.573 71.167,210.001 71.223,210.003 71.292 M251.884 72.366 C 250.767 72.906,250.792 75.239,251.919 75.668 C 253.269 76.181,254.333 75.446,254.333 74.000 C 254.333 72.547,253.147 71.756,251.884 72.366 M244.750 72.533 C 243.833 72.617,241.002 72.646,238.458 72.596 L 233.833 72.505 233.833 73.232 C 233.833 74.016,234.079 74.167,235.358 74.167 C 236.232 74.167,236.250 74.340,236.250 82.833 C 236.250 91.821,236.326 91.349,234.828 91.628 C 233.576 91.861,233.600 91.840,233.738 92.576 L 233.848 93.167 237.841 93.167 L 241.833 93.167 241.858 92.583 C 241.872 92.263,241.891 91.906,241.900 91.792 C 241.912 91.648,241.489 91.552,240.536 91.481 C 238.777 91.350,238.936 91.745,238.860 87.308 L 238.794 83.469 241.320 83.526 C 244.074 83.589,244.157 83.619,244.167 84.583 C 244.174 85.324,244.374 85.532,245.017 85.471 C 245.482 85.426,245.581 85.349,245.571 85.042 C 245.565 84.835,245.546 83.587,245.530 82.268 L 245.500 79.870 244.918 79.802 C 244.363 79.737,244.331 79.762,244.242 80.325 C 244.054 81.504,243.998 81.631,243.626 81.719 C 242.672 81.946,241.223 82.029,240.082 81.922 L 238.833 81.805 238.835 79.111 C 238.835 77.629,238.884 75.910,238.942 75.292 L 239.048 74.167 241.952 74.167 C 245.544 74.167,245.771 74.274,246.078 76.125 C 246.203 76.875,246.471 76.993,247.453 76.730 C 248.323 76.496,247.663 72.297,246.766 72.357 C 246.574 72.369,245.667 72.449,244.750 72.533 M117.000 73.002 C 117.000 73.261,116.956 73.587,116.903 73.727 C 116.825 73.930,117.004 74.003,117.799 74.093 C 118.345 74.155,118.895 74.269,119.021 74.346 C 119.365 74.559,119.361 91.110,119.018 91.322 C 118.890 91.401,118.346 91.553,117.809 91.658 C 116.795 91.858,116.626 92.099,116.934 92.903 C 117.043 93.186,124.386 93.320,124.557 93.042 C 124.600 92.973,124.660 92.617,124.692 92.250 L 124.750 91.583 123.528 91.488 C 121.940 91.365,122.006 91.549,122.003 87.208 L 122.000 83.500 126.851 83.500 L 131.702 83.500 131.643 87.339 C 131.576 91.666,131.685 91.355,130.133 91.660 L 129.148 91.854 129.199 92.469 L 129.250 93.083 132.988 93.128 C 137.096 93.178,136.993 93.203,136.997 92.144 L 137.000 91.538 135.824 91.471 C 134.232 91.381,134.339 92.004,134.336 82.804 C 134.333 73.552,134.232 74.167,135.762 74.167 L 136.667 74.167 136.667 73.349 L 136.667 72.532 133.000 72.532 C 130.133 72.532,129.333 72.578,129.333 72.745 C 129.333 72.862,129.287 73.188,129.231 73.469 L 129.129 73.979 130.128 74.092 C 131.673 74.267,131.575 73.997,131.643 78.244 L 131.703 82.000 128.878 82.000 C 127.324 82.000,125.141 82.049,124.026 82.109 L 122.000 82.218 122.000 78.454 C 122.000 74.074,121.968 74.167,123.470 74.167 L 124.417 74.167 124.360 73.349 L 124.303 72.532 120.652 72.532 L 117.000 72.532 117.000 73.002 M176.286 76.896 C 175.662 78.212,175.404 78.435,174.042 78.841 C 173.368 79.042,173.333 79.084,173.333 79.693 L 173.333 80.333 174.417 80.333 L 175.500 80.333 175.500 84.778 C 175.500 90.955,175.772 92.173,177.328 92.958 C 178.731 93.667,181.407 93.200,182.332 92.084 C 182.614 91.745,181.919 90.757,181.523 90.933 C 178.117 92.441,177.834 92.002,177.834 85.208 L 177.833 80.333 179.833 80.333 L 181.833 80.333 181.833 79.500 L 181.833 78.667 179.840 78.667 L 177.846 78.667 177.798 77.208 C 177.729 75.110,177.188 74.998,176.286 76.896 M76.333 82.250 L 76.333 88.500 82.583 88.500 L 88.833 88.500 88.833 82.250 L 88.833 76.000 82.583 76.000 L 76.333 76.000 76.333 82.250 M88.000 82.250 L 88.000 87.500 82.667 87.500 L 77.333 87.500 77.333 82.250 L 77.333 77.000 82.667 77.000 L 88.000 77.000 88.000 82.250 M163.555 78.649 C 162.678 78.876,161.514 79.650,161.015 80.339 C 160.480 81.078,160.333 81.040,160.333 80.161 C 160.333 78.916,159.914 78.667,157.821 78.667 C 156.044 78.667,156.000 78.676,155.998 79.042 C 155.996 79.248,155.953 79.573,155.902 79.764 C 155.818 80.077,155.923 80.135,156.939 80.347 C 158.393 80.651,158.366 80.528,158.300 86.548 C 158.244 91.761,158.367 91.341,156.798 91.674 C 155.916 91.861,155.818 91.922,155.902 92.234 C 155.953 92.426,155.996 92.715,155.998 92.875 C 156.000 93.143,156.279 93.167,159.500 93.167 L 163.000 93.167 163.025 92.583 C 163.039 92.263,163.057 91.906,163.067 91.792 C 163.078 91.655,162.724 91.549,162.039 91.483 C 160.657 91.351,160.750 91.654,160.750 87.278 L 160.750 83.417 161.215 82.470 C 162.344 80.171,164.823 79.450,166.350 80.978 C 167.271 81.898,167.384 82.463,167.457 86.516 C 167.543 91.219,167.520 91.300,166.042 91.669 C 165.357 91.840,165.333 91.869,165.333 92.506 L 165.333 93.167 168.750 93.167 L 172.167 93.167 172.167 92.353 L 172.167 91.540 171.170 91.468 C 169.843 91.372,169.940 91.699,169.811 86.865 C 169.662 81.254,169.245 79.885,167.418 79.001 C 166.588 78.599,164.489 78.408,163.555 78.649 M188.456 78.671 C 182.491 80.176,182.196 91.043,188.068 92.970 C 190.234 93.682,193.017 93.355,194.885 92.170 L 195.686 91.662 195.314 91.123 C 195.109 90.826,194.922 90.557,194.899 90.526 C 194.876 90.494,194.345 90.673,193.720 90.923 C 189.836 92.480,187.125 91.004,186.587 87.042 L 186.469 86.167 190.881 86.167 L 195.293 86.167 195.503 85.659 C 196.005 84.448,195.457 81.793,194.393 80.284 C 193.401 78.877,190.626 78.123,188.456 78.671 M205.090 78.777 C 204.467 78.968,204.012 79.288,203.235 80.080 L 202.205 81.130 202.131 80.234 C 202.012 78.804,201.795 78.667,199.655 78.667 L 197.863 78.667 197.748 79.345 C 197.610 80.163,197.518 80.077,198.826 80.355 C 200.218 80.651,200.201 80.571,200.135 86.548 C 200.077 91.766,200.199 91.352,198.624 91.662 C 197.634 91.857,197.630 91.859,197.732 92.366 C 197.788 92.646,197.833 92.941,197.833 93.021 C 197.833 93.101,199.517 93.167,201.576 93.167 L 205.318 93.167 205.427 92.585 C 205.605 91.638,205.493 91.545,204.107 91.475 C 202.474 91.392,202.583 91.694,202.583 87.278 C 202.583 82.543,202.885 81.562,204.565 80.828 C 206.402 80.026,206.970 80.427,206.991 82.542 L 207.000 83.500 207.809 83.500 L 208.617 83.500 208.724 82.125 C 208.783 81.369,208.832 80.291,208.832 79.730 L 208.833 78.710 208.208 78.607 C 207.194 78.439,205.974 78.506,205.090 78.777 M217.992 78.727 C 215.490 79.402,214.333 81.716,215.403 83.903 C 215.975 85.073,216.581 85.541,219.282 86.904 C 221.877 88.212,222.333 88.650,222.333 89.833 C 222.333 91.327,221.131 92.144,219.220 91.948 C 217.409 91.763,216.833 91.123,216.833 89.295 L 216.833 88.545 216.056 88.439 C 215.097 88.307,215.220 88.093,214.988 90.303 C 214.761 92.471,214.661 92.249,216.114 92.790 C 219.755 94.146,223.840 93.110,224.502 90.664 C 225.227 87.981,224.138 86.406,220.322 84.620 C 217.270 83.192,216.464 81.798,217.942 80.500 C 218.467 80.039,218.610 80.000,219.767 80.000 C 221.616 80.000,222.000 80.377,222.000 82.192 L 222.000 83.000 222.818 83.000 L 223.635 83.000 223.729 82.208 C 224.045 79.525,224.043 79.036,223.717 78.933 C 222.431 78.524,219.176 78.408,217.992 78.727 M265.314 78.719 C 264.352 79.080,263.553 79.636,262.948 80.365 L 262.385 81.043 262.281 80.165 C 262.117 78.780,261.931 78.667,259.822 78.667 L 258.029 78.667 257.915 79.345 C 257.775 80.174,257.710 80.114,259.008 80.371 L 260.080 80.583 260.216 81.500 C 260.436 82.979,260.291 90.900,260.039 91.204 C 259.923 91.343,259.379 91.546,258.830 91.654 C 257.788 91.859,257.714 91.954,257.938 92.792 C 258.041 93.173,264.663 93.411,264.891 93.042 C 264.933 92.973,264.994 92.617,265.025 92.250 L 265.083 91.583 264.039 91.483 C 262.663 91.352,262.757 91.622,262.696 87.620 C 262.618 82.561,263.249 80.939,265.537 80.323 C 268.436 79.543,269.414 81.226,269.416 87.000 C 269.417 91.374,269.423 91.352,268.077 91.653 C 267.235 91.842,267.146 91.902,267.232 92.224 C 267.285 92.422,267.330 92.715,267.331 92.875 C 267.335 93.395,273.922 93.313,274.062 92.792 C 274.355 91.698,274.235 91.500,273.282 91.500 C 271.772 91.500,271.819 91.631,271.730 87.160 C 271.611 81.153,271.262 79.994,269.258 78.964 C 268.413 78.529,266.187 78.391,265.314 78.719 M279.667 78.606 C 279.346 78.646,278.558 78.792,277.917 78.930 L 276.750 79.181 276.905 81.090 L 277.059 83.000 277.840 83.000 L 278.621 83.000 278.709 81.899 C 278.811 80.635,278.956 80.448,280.032 80.189 C 281.996 79.715,283.381 80.137,283.989 81.395 C 284.447 82.340,284.680 84.952,284.316 85.062 C 284.188 85.101,282.883 85.337,281.417 85.586 C 277.598 86.236,276.460 86.915,276.004 88.815 C 275.009 92.965,280.643 95.045,283.942 91.746 L 284.811 90.877 284.915 91.563 C 284.971 91.941,285.057 92.456,285.105 92.708 L 285.193 93.167 286.995 93.167 C 288.975 93.167,289.000 93.153,289.000 92.090 C 289.000 91.545,288.994 91.541,288.084 91.465 C 286.868 91.364,286.968 91.730,286.822 86.860 C 286.708 83.064,286.614 82.113,286.223 80.773 C 285.734 79.097,282.998 78.192,279.667 78.606 M298.389 78.649 C 297.500 78.879,296.334 79.660,295.864 80.341 C 295.285 81.178,295.225 81.164,295.129 80.165 C 294.998 78.805,294.769 78.667,292.641 78.667 L 290.833 78.667 290.833 79.402 L 290.833 80.138 291.871 80.361 L 292.908 80.585 293.044 81.334 C 293.119 81.746,293.159 84.130,293.132 86.631 C 293.077 91.737,293.191 91.343,291.683 91.663 L 290.744 91.862 290.806 92.515 L 290.868 93.167 294.351 93.167 L 297.833 93.167 297.861 92.667 C 297.876 92.392,297.895 92.035,297.903 91.875 C 297.914 91.637,297.726 91.565,296.872 91.483 C 295.491 91.351,295.583 91.654,295.583 87.278 L 295.583 83.417 296.048 82.470 C 297.442 79.631,300.590 79.366,301.810 81.985 C 302.227 82.879,302.247 83.056,302.296 86.333 C 302.369 91.152,302.328 91.307,300.875 91.669 C 300.190 91.840,300.167 91.868,300.167 92.510 L 300.167 93.174 303.542 93.128 L 306.917 93.083 306.967 92.292 L 307.018 91.500 306.134 91.497 C 304.697 91.493,304.774 91.730,304.639 86.936 C 304.474 81.105,304.031 79.754,302.002 78.888 C 301.317 78.596,299.150 78.453,298.389 78.649 M313.167 78.756 C 307.506 80.342,306.903 90.274,312.313 92.811 C 314.132 93.663,317.709 93.381,319.513 92.242 L 320.157 91.835 319.812 91.251 C 319.401 90.554,319.485 90.562,317.932 91.083 C 313.728 92.495,311.337 90.622,311.337 85.917 C 311.337 81.893,313.340 79.488,316.133 80.159 C 317.405 80.464,317.831 80.907,317.948 82.042 L 318.047 83.000 318.770 83.000 C 319.622 83.000,319.633 82.974,319.704 80.843 L 319.750 79.437 318.500 79.043 C 316.864 78.528,314.445 78.398,313.167 78.756 M326.897 78.647 C 320.754 80.246,320.613 91.270,326.713 93.082 C 328.829 93.710,332.018 93.180,333.728 91.915 C 334.130 91.618,333.494 90.404,333.020 90.563 C 332.871 90.613,332.225 90.843,331.583 91.073 C 327.823 92.422,324.953 90.422,324.839 86.375 C 324.835 86.213,325.824 86.167,329.246 86.167 L 333.658 86.167 333.931 85.639 C 334.498 84.543,333.745 81.402,332.588 80.033 C 331.582 78.844,328.771 78.159,326.897 78.647 M138.333 79.153 C 138.333 79.421,138.290 79.753,138.236 79.892 C 138.161 80.089,138.359 80.188,139.137 80.341 C 140.391 80.587,140.318 80.298,140.484 85.667 C 140.636 90.589,140.813 91.362,142.017 92.393 C 143.813 93.930,147.057 93.642,148.876 91.785 C 149.735 90.908,149.743 90.911,149.957 92.250 L 150.090 93.083 151.944 93.130 L 153.797 93.177 153.873 92.464 C 153.971 91.536,153.942 91.500,153.105 91.500 C 151.685 91.500,151.751 91.809,151.742 85.113 C 151.736 80.459,151.687 79.142,151.513 78.933 C 151.111 78.448,147.167 78.547,147.164 79.042 C 147.163 79.248,147.119 79.577,147.066 79.774 C 146.980 80.097,147.072 80.153,148.025 80.359 C 149.334 80.641,149.287 80.478,149.314 84.869 C 149.344 89.861,148.416 91.552,145.648 91.555 C 142.940 91.557,142.231 89.019,142.796 81.339 C 142.995 78.636,143.036 78.680,140.292 78.672 L 138.333 78.667 138.333 79.153 M249.164 79.042 C 249.163 79.248,249.120 79.573,249.069 79.764 C 248.985 80.077,249.089 80.135,250.106 80.347 C 251.560 80.651,251.533 80.528,251.467 86.548 C 251.410 91.761,251.533 91.341,249.965 91.674 C 249.082 91.861,248.985 91.922,249.068 92.234 C 249.120 92.426,249.163 92.715,249.164 92.875 C 249.166 93.143,249.445 93.167,252.667 93.167 L 256.167 93.167 256.194 92.667 C 256.210 92.392,256.228 92.035,256.236 91.875 C 256.247 91.637,256.059 91.565,255.206 91.483 C 253.810 91.350,253.917 91.871,253.914 85.175 C 253.912 80.400,253.867 79.158,253.685 78.939 C 253.278 78.448,249.167 78.541,249.164 79.042 M191.684 80.381 C 192.450 80.898,192.979 81.917,193.105 83.121 C 193.235 84.366,193.368 84.296,190.476 84.498 C 189.160 84.590,187.765 84.712,187.375 84.768 L 186.667 84.871 186.667 84.212 C 186.667 81.087,189.509 78.917,191.684 80.381 M329.800 80.234 C 330.847 80.779,331.500 82.035,331.500 83.506 L 331.500 84.303 330.042 84.409 C 329.240 84.467,327.802 84.587,326.847 84.674 C 324.788 84.863,324.888 84.926,325.117 83.588 C 325.611 80.707,327.756 79.171,329.800 80.234 M284.499 87.375 C 284.497 89.759,282.884 91.522,280.682 91.548 C 279.153 91.567,278.130 90.387,278.404 88.924 C 278.626 87.742,279.065 87.495,281.963 86.921 C 284.695 86.380,284.500 86.345,284.499 87.375 " stroke="none" fill="#fafbfc" fill-rule="evenodd"></path><path id="path1" d="M0.000 82.250 L 0.000 164.500 200.000 164.500 L 400.000 164.500 400.000 82.250 L 400.000 0.000 200.000 0.000 L 0.000 0.000 0.000 82.250 M99.333 65.497 C 99.333 65.588,98.158 66.863,96.722 68.331 L 94.110 71.000 82.638 71.000 L 71.167 71.000 71.167 82.250 L 71.167 93.500 82.638 93.500 L 94.110 93.500 96.722 96.169 C 98.158 97.637,99.333 98.912,99.333 99.003 C 99.333 99.109,93.460 99.167,82.583 99.167 L 65.833 99.167 65.833 82.250 L 65.833 65.333 82.583 65.333 C 93.460 65.333,99.333 65.391,99.333 65.497 M67.000 82.250 L 67.000 97.833 81.776 97.833 L 96.552 97.833 96.241 97.458 C 96.070 97.252,95.404 96.540,94.761 95.875 L 93.592 94.667 81.796 94.667 L 70.000 94.667 70.000 82.250 L 70.000 69.833 81.796 69.833 L 93.592 69.833 94.676 68.708 C 95.272 68.090,95.939 67.377,96.159 67.125 L 96.558 66.667 81.779 66.667 L 67.000 66.667 67.000 82.250 M212.608 71.762 C 212.550 72.181,212.453 73.797,212.392 75.353 L 212.281 78.182 211.349 78.133 L 210.417 78.083 210.312 75.583 C 210.254 74.208,210.123 72.638,210.020 72.094 C 209.917 71.550,209.833 71.082,209.833 71.053 C 209.833 71.024,210.481 71.000,211.273 71.000 L 212.712 71.000 212.608 71.762 M253.498 72.249 C 254.998 73.025,254.782 75.569,253.189 75.887 C 251.859 76.153,250.998 75.396,251.004 73.964 C 251.010 72.400,252.204 71.580,253.498 72.249 M247.423 72.507 C 247.680 72.791,248.137 76.579,247.938 76.783 C 247.920 76.801,247.499 76.839,247.002 76.866 L 246.098 76.917 245.924 76.070 C 245.828 75.604,245.617 75.023,245.454 74.778 L 245.159 74.333 242.175 74.333 L 239.191 74.333 239.086 75.208 C 239.029 75.690,239.005 77.358,239.033 78.917 L 239.083 81.750 240.417 81.803 C 242.117 81.871,243.837 81.694,243.915 81.444 C 243.948 81.337,244.023 80.894,244.081 80.458 L 244.187 79.667 244.919 79.667 L 245.651 79.667 245.701 82.517 C 245.755 85.657,245.752 85.667,244.698 85.667 C 244.190 85.667,244.000 85.278,244.000 84.240 C 244.000 84.017,243.878 83.821,243.708 83.772 C 243.101 83.597,240.476 83.466,239.753 83.574 L 239.000 83.687 239.002 86.885 C 239.004 91.170,239.035 91.333,239.832 91.333 C 241.489 91.333,242.000 91.506,241.998 92.064 C 241.992 93.380,242.288 93.294,237.755 93.292 L 233.705 93.289 233.612 92.603 C 233.498 91.757,233.520 91.736,234.742 91.513 C 235.288 91.413,235.813 91.254,235.909 91.158 C 236.124 90.943,236.248 77.302,236.050 75.588 L 235.917 74.426 235.167 74.301 C 233.739 74.063,233.667 74.026,233.669 73.538 C 233.675 72.294,233.278 72.378,238.804 72.453 C 242.753 72.506,246.114 72.398,247.016 72.190 C 247.070 72.177,247.253 72.320,247.423 72.507 M124.469 73.245 C 124.531 74.221,124.402 74.327,123.150 74.331 L 122.218 74.333 122.110 76.208 C 122.050 77.240,122.001 78.965,122.001 80.042 L 122.000 82.000 123.958 81.999 C 125.035 81.999,127.210 81.950,128.792 81.890 L 131.667 81.781 131.667 79.314 C 131.667 75.777,131.431 74.334,130.855 74.332 C 129.595 74.330,129.167 74.041,129.167 73.194 L 129.167 72.404 132.908 72.410 C 137.079 72.417,136.826 72.340,136.831 73.607 C 136.834 74.229,136.632 74.333,135.428 74.333 L 134.551 74.333 134.442 76.109 C 134.303 78.382,134.302 87.590,134.441 89.686 L 134.547 91.289 135.790 91.383 C 137.283 91.496,137.209 91.433,137.073 92.460 L 136.962 93.293 133.083 93.290 L 129.204 93.287 129.113 92.610 C 128.995 91.728,128.985 91.739,130.230 91.504 L 131.297 91.302 131.482 90.061 C 131.584 89.378,131.667 87.660,131.667 86.243 L 131.667 83.667 126.833 83.667 L 122.000 83.667 122.017 86.042 C 122.026 87.348,122.082 89.054,122.142 89.833 L 122.250 91.250 123.484 91.373 C 124.970 91.521,124.894 91.455,124.754 92.469 L 124.641 93.293 120.752 93.290 L 116.864 93.287 116.791 92.602 C 116.696 91.705,116.664 91.736,117.893 91.505 L 118.956 91.304 119.145 90.162 C 119.398 88.628,119.398 77.041,119.145 75.509 L 118.957 74.371 118.143 74.263 C 116.881 74.095,116.833 74.056,116.833 73.183 L 116.833 72.402 120.625 72.421 L 124.417 72.440 124.469 73.245 M177.625 75.605 C 177.978 75.700,178.000 75.792,178.000 77.186 L 178.000 78.667 180.000 78.667 L 182.000 78.667 182.000 79.236 C 182.000 80.329,181.991 80.333,179.892 80.333 L 177.986 80.333 178.035 85.515 L 178.083 90.696 178.572 91.116 C 179.151 91.614,179.924 91.581,181.020 91.009 C 181.767 90.620,181.902 90.666,182.373 91.468 L 182.663 91.962 181.788 92.564 C 179.544 94.110,177.017 93.758,175.941 91.750 C 175.600 91.115,175.581 90.830,175.529 85.708 L 175.475 80.333 174.311 80.333 L 173.148 80.333 173.199 79.653 C 173.250 78.975,173.254 78.972,174.333 78.612 L 175.417 78.250 176.132 76.875 C 176.852 75.493,176.937 75.421,177.625 75.605 M89.000 82.250 L 89.000 88.667 82.583 88.667 L 76.167 88.667 76.167 82.250 L 76.167 75.833 82.583 75.833 L 89.000 75.833 89.000 82.250 M77.333 82.250 L 77.333 87.500 82.583 87.500 L 87.833 87.500 87.833 82.250 L 87.833 77.000 82.583 77.000 L 77.333 77.000 77.333 82.250 M167.467 78.943 C 169.336 79.838,169.683 80.907,169.841 86.250 C 169.987 91.219,170.007 91.333,170.747 91.333 C 171.972 91.333,172.334 91.500,172.331 92.063 C 172.325 93.362,172.532 93.290,168.778 93.289 C 165.126 93.287,165.173 93.300,165.169 92.313 L 165.167 91.710 166.160 91.515 C 167.408 91.269,167.370 91.438,167.302 86.500 C 167.235 81.638,166.811 80.607,164.789 80.379 C 161.624 80.022,160.203 83.642,160.911 90.257 L 161.027 91.333 161.576 91.333 C 163.004 91.333,163.188 91.459,163.133 92.397 L 163.083 93.250 159.540 93.273 C 157.591 93.286,155.967 93.249,155.931 93.190 C 155.895 93.131,155.840 92.783,155.808 92.417 L 155.751 91.750 156.862 91.519 C 157.733 91.339,157.997 91.213,158.086 90.936 C 158.447 89.817,158.321 81.099,157.939 80.717 C 157.893 80.670,157.419 80.547,156.886 80.441 L 155.917 80.250 155.917 79.417 L 155.917 78.583 157.833 78.640 C 160.039 78.706,160.242 78.807,160.410 79.931 L 160.522 80.675 161.219 79.959 C 162.804 78.331,165.330 77.920,167.467 78.943 M192.410 78.719 C 194.846 79.570,196.685 83.704,195.579 85.842 L 195.325 86.333 190.996 86.333 L 186.667 86.333 186.667 86.715 C 186.667 89.751,188.872 91.798,191.650 91.340 C 192.847 91.142,193.117 91.061,194.317 90.540 C 195.090 90.204,196.015 91.296,195.492 91.927 C 194.249 93.424,189.643 93.941,187.396 92.836 C 182.461 90.407,182.503 80.960,187.458 78.888 C 188.796 78.329,191.072 78.251,192.410 78.719 M208.906 78.681 C 209.053 78.821,208.790 83.432,208.625 83.597 C 208.586 83.636,208.205 83.620,207.777 83.561 L 207.000 83.455 207.000 82.757 C 207.000 82.373,206.878 81.700,206.728 81.262 L 206.457 80.464 205.775 80.573 C 204.699 80.745,203.819 81.327,203.257 82.237 L 202.750 83.056 202.693 86.306 C 202.661 88.093,202.684 89.944,202.743 90.420 L 202.851 91.285 204.200 91.389 C 205.812 91.514,205.709 91.433,205.573 92.460 L 205.462 93.293 201.580 93.290 L 197.697 93.287 197.625 92.602 C 197.529 91.704,197.496 91.737,198.740 91.502 L 199.818 91.298 199.919 90.608 C 199.975 90.228,199.997 87.870,199.969 85.369 C 199.911 80.309,199.989 80.609,198.687 80.433 C 197.631 80.289,197.555 80.205,197.634 79.276 L 197.703 78.469 199.643 78.587 C 201.756 78.715,202.165 78.887,202.169 79.651 C 202.175 80.799,202.307 80.848,203.106 79.993 C 203.919 79.124,204.716 78.668,205.750 78.482 C 206.549 78.339,208.686 78.473,208.906 78.681 M223.136 78.706 L 224.189 78.899 224.100 79.658 C 224.051 80.075,223.963 81.035,223.905 81.792 L 223.799 83.167 222.923 83.167 L 222.047 83.167 221.941 82.149 C 221.742 80.243,220.804 79.636,218.864 80.158 C 216.123 80.896,216.967 83.003,220.667 84.661 C 223.752 86.043,224.739 87.179,224.728 89.333 C 224.715 91.900,223.275 93.256,220.354 93.454 C 218.028 93.612,214.745 92.793,214.754 92.057 C 214.756 91.888,214.822 90.981,214.900 90.042 L 215.043 88.333 215.914 88.333 L 216.786 88.333 216.887 89.292 C 217.109 91.413,217.745 91.941,219.908 91.804 C 221.211 91.721,221.820 91.340,222.129 90.416 C 222.590 89.040,221.923 88.295,218.922 86.838 C 215.789 85.317,214.971 84.384,214.971 82.333 C 214.971 79.043,217.889 77.747,223.136 78.706 M269.244 78.831 C 271.230 79.682,271.670 80.979,271.842 86.500 C 271.915 88.837,271.980 90.870,271.987 91.018 C 271.997 91.224,272.253 91.309,273.107 91.389 C 274.444 91.513,274.347 91.421,274.225 92.447 L 274.125 93.292 270.688 93.271 L 267.250 93.250 267.201 92.494 L 267.151 91.739 268.116 91.494 L 269.081 91.250 269.219 90.333 C 269.424 88.970,269.249 83.051,268.981 82.259 C 268.032 79.463,264.285 79.799,263.170 82.780 C 262.855 83.621,262.831 84.006,262.872 87.473 L 262.917 91.250 263.978 91.367 C 265.273 91.510,265.226 91.463,265.088 92.465 L 264.975 93.284 261.420 93.290 L 257.865 93.296 257.792 92.606 C 257.696 91.704,257.663 91.737,258.903 91.503 L 259.977 91.300 260.087 90.271 C 260.148 89.705,260.172 87.348,260.140 85.032 C 260.077 80.348,260.150 80.609,258.854 80.433 C 257.798 80.289,257.721 80.205,257.801 79.276 L 257.869 78.469 259.810 78.587 C 261.866 78.711,262.331 78.892,262.336 79.567 C 262.342 80.571,262.498 80.681,263.039 80.064 C 264.444 78.465,267.140 77.929,269.244 78.831 M284.310 78.764 C 285.358 79.202,286.103 80.082,286.545 81.407 C 286.639 81.687,286.774 83.829,286.846 86.167 C 287.011 91.512,286.950 91.264,288.116 91.385 C 289.245 91.501,289.180 91.424,289.053 92.492 L 288.948 93.381 287.109 93.276 C 284.996 93.155,285.024 93.171,284.889 92.029 C 284.768 91.003,284.792 91.012,284.134 91.761 C 281.891 94.316,276.791 93.857,276.005 91.029 C 275.404 88.865,276.269 86.962,278.204 86.193 C 278.924 85.907,283.465 85.000,284.179 85.000 C 284.509 85.000,284.286 82.386,283.877 81.470 C 283.331 80.247,281.580 79.767,279.817 80.356 C 278.989 80.633,278.925 80.738,278.833 81.966 L 278.750 83.083 277.880 83.134 C 276.856 83.193,276.905 83.299,276.753 80.723 L 276.653 79.029 277.118 78.938 C 280.389 78.292,283.028 78.229,284.310 78.764 M302.328 78.968 C 304.143 79.872,304.651 81.383,304.662 85.917 C 304.670 89.377,304.807 91.173,305.067 91.253 C 305.168 91.284,305.681 91.358,306.208 91.417 C 307.252 91.534,307.302 91.614,307.067 92.792 L 306.966 93.293 303.525 93.271 L 300.083 93.250 300.034 92.494 L 299.985 91.739 300.942 91.494 C 302.189 91.176,302.207 91.098,302.124 86.516 C 302.026 81.139,301.359 79.992,298.573 80.409 C 296.425 80.732,295.666 82.511,295.669 87.215 C 295.672 91.510,295.596 91.263,296.954 91.390 C 298.257 91.511,298.141 91.399,298.017 92.417 L 297.917 93.250 294.292 93.275 L 290.667 93.300 290.667 92.502 L 290.667 91.704 291.724 91.505 L 292.781 91.305 292.974 90.259 C 293.492 87.443,293.123 80.730,292.441 80.592 C 292.244 80.552,291.783 80.456,291.417 80.378 L 290.750 80.237 290.750 79.410 L 290.750 78.583 292.667 78.640 C 294.782 78.703,295.167 78.863,295.167 79.679 C 295.167 80.645,295.333 80.727,295.915 80.047 C 297.336 78.386,300.193 77.906,302.328 78.968 M318.569 78.975 L 319.917 79.417 319.881 80.250 C 319.861 80.708,319.799 81.556,319.742 82.133 L 319.638 83.183 318.778 83.133 L 317.917 83.083 317.816 82.149 C 317.691 80.984,317.669 80.949,316.754 80.519 C 313.838 79.149,311.500 81.545,311.500 85.904 C 311.500 90.692,313.756 92.418,318.075 90.935 L 319.400 90.480 319.697 90.865 C 320.446 91.835,320.231 92.162,318.341 92.925 C 314.669 94.407,309.900 92.681,309.105 89.583 C 307.022 81.470,311.356 76.612,318.569 78.975 M331.287 78.945 C 333.421 79.946,335.029 84.195,333.917 85.893 L 333.628 86.333 329.314 86.333 L 325.000 86.333 325.002 86.708 C 325.023 90.644,328.431 92.483,332.375 90.686 C 333.353 90.240,333.255 90.217,333.759 91.015 C 334.267 91.819,334.251 91.842,332.551 92.671 C 326.292 95.725,320.655 90.527,322.438 83.344 C 323.460 79.227,327.553 77.193,331.287 78.945 M141.500 78.668 C 143.008 78.674,142.911 78.294,142.914 84.201 C 142.917 90.228,142.957 90.420,144.337 91.125 C 145.957 91.953,147.865 91.203,148.769 89.383 C 149.089 88.738,149.269 81.047,148.971 80.749 C 148.909 80.687,148.459 80.548,147.971 80.440 L 147.083 80.244 147.033 79.365 L 146.982 78.487 149.199 78.597 C 152.195 78.745,151.929 78.207,151.857 83.966 C 151.779 90.245,151.874 91.333,152.499 91.333 C 153.636 91.333,154.000 91.510,153.998 92.063 C 153.993 93.196,153.876 93.333,152.922 93.333 C 151.503 93.333,149.974 93.130,149.914 92.933 C 149.883 92.832,149.809 92.387,149.750 91.943 L 149.642 91.136 149.089 91.782 C 147.003 94.219,142.235 94.001,141.088 91.417 C 140.523 90.144,140.455 89.606,140.337 85.500 C 140.205 80.886,140.176 80.710,139.523 80.567 C 138.330 80.306,138.252 80.248,138.197 79.595 C 138.106 78.510,138.194 78.439,139.462 78.558 C 140.079 78.617,140.996 78.666,141.500 78.668 M253.833 78.943 C 254.048 79.145,254.075 79.910,254.024 84.298 C 253.949 90.771,254.006 91.333,254.748 91.333 C 256.153 91.333,256.333 91.457,256.333 92.417 L 256.333 93.292 252.792 93.291 C 248.942 93.289,249.007 93.306,249.003 92.311 L 249.000 91.704 250.079 91.501 C 251.437 91.245,251.366 91.589,251.301 85.555 C 251.244 80.278,251.346 80.697,250.052 80.441 C 249.011 80.236,248.815 79.925,249.075 78.891 L 249.176 78.488 251.380 78.598 C 252.927 78.674,253.658 78.777,253.833 78.943 M189.336 80.117 C 188.065 80.373,187.096 81.849,186.745 84.067 L 186.642 84.717 187.779 84.605 C 188.405 84.543,189.667 84.452,190.583 84.403 C 193.208 84.260,193.065 84.342,192.945 83.060 C 192.744 80.906,191.293 79.723,189.336 80.117 M327.669 80.117 C 326.568 80.338,325.678 81.545,325.248 83.398 C 324.918 84.822,324.806 84.752,327.048 84.525 C 328.087 84.419,329.357 84.333,329.871 84.333 C 331.249 84.333,331.334 84.271,331.330 83.274 C 331.321 81.137,329.670 79.714,327.669 80.117 M281.667 87.098 C 278.612 87.733,277.939 88.501,278.744 90.428 C 279.843 93.058,284.317 90.813,284.330 87.625 C 284.334 86.484,284.482 86.513,281.667 87.098 " stroke="none" fill="#54a4fc" fill-rule="evenodd"></path><path id="path2" d="M94.584 70.332 L 94.106 70.831 82.678 70.875 L 71.250 70.919 82.676 70.960 L 94.101 71.000 94.667 70.417 C 94.978 70.096,95.194 69.833,95.147 69.833 C 95.101 69.833,94.847 70.058,94.584 70.332 M116.944 72.444 C 116.883 72.506,116.834 72.637,116.836 72.736 C 116.838 72.856,116.879 72.852,116.961 72.725 C 117.028 72.620,117.271 72.499,117.500 72.456 L 117.917 72.379 117.486 72.356 C 117.249 72.344,117.006 72.383,116.944 72.444 M129.269 72.470 C 129.222 72.545,129.405 72.574,129.675 72.534 C 129.946 72.495,130.167 72.433,130.167 72.398 C 130.167 72.271,129.351 72.336,129.269 72.470 M234.042 72.448 C 234.202 72.490,234.465 72.490,234.625 72.448 C 234.785 72.406,234.654 72.372,234.333 72.372 C 234.012 72.372,233.881 72.406,234.042 72.448 M177.892 77.250 C 177.892 78.075,177.920 78.434,177.955 78.047 C 177.990 77.660,177.990 76.985,177.956 76.547 C 177.922 76.109,177.893 76.425,177.892 77.250 M76.247 82.250 L 76.250 88.583 82.583 88.586 L 88.917 88.590 82.627 88.543 L 76.337 88.496 76.291 82.206 L 76.244 75.917 76.247 82.250 M290.724 78.757 C 290.670 78.899,290.672 79.061,290.729 79.118 C 290.787 79.175,290.833 79.102,290.833 78.956 C 290.833 78.810,291.002 78.657,291.208 78.618 L 291.583 78.545 291.203 78.523 C 290.994 78.510,290.778 78.616,290.724 78.757 M177.907 85.000 C 177.907 87.612,177.930 88.681,177.958 87.375 C 177.986 86.069,177.986 83.931,177.958 82.625 C 177.930 81.319,177.907 82.387,177.907 85.000 M278.712 82.333 C 278.712 82.746,278.745 82.915,278.784 82.708 C 278.824 82.502,278.824 82.165,278.784 81.958 C 278.745 81.752,278.712 81.921,278.712 82.333 M130.544 81.953 C 130.797 81.991,131.172 81.990,131.377 81.951 C 131.582 81.911,131.375 81.880,130.917 81.881 C 130.458 81.882,130.291 81.915,130.544 81.953 M151.736 85.833 C 151.736 87.621,151.761 88.352,151.791 87.458 C 151.821 86.565,151.821 85.102,151.791 84.208 C 151.761 83.315,151.736 84.046,151.736 85.833 M253.903 86.000 C 253.903 87.696,253.927 88.390,253.958 87.542 C 253.988 86.694,253.988 85.306,253.958 84.458 C 253.927 83.610,253.903 84.304,253.903 86.000 M284.383 84.167 C 284.383 84.671,284.415 84.877,284.453 84.625 C 284.491 84.373,284.491 83.960,284.453 83.708 C 284.415 83.456,284.383 83.662,284.383 84.167 M191.089 86.125 C 188.708 86.151,186.706 86.227,186.639 86.295 C 186.571 86.362,188.480 86.395,190.880 86.369 C 193.399 86.342,195.313 86.254,195.406 86.161 C 195.494 86.073,195.533 86.017,195.492 86.039 C 195.450 86.060,193.469 86.099,191.089 86.125 M329.333 86.167 L 324.917 86.258 329.282 86.296 C 332.053 86.320,333.685 86.272,333.750 86.167 C 333.807 86.075,333.830 86.017,333.802 86.037 C 333.773 86.058,331.762 86.116,329.333 86.167 M284.331 87.466 L 284.411 88.417 284.466 87.602 C 284.496 87.154,284.459 86.726,284.385 86.651 C 284.311 86.577,284.286 86.943,284.331 87.466 M94.500 94.083 C 94.811 94.404,95.103 94.667,95.149 94.667 C 95.195 94.667,94.978 94.404,94.667 94.083 C 94.356 93.763,94.064 93.500,94.018 93.500 C 93.972 93.500,94.189 93.763,94.500 94.083 " stroke="none" fill="#8fc4fc" fill-rule="evenodd"></path><path id="path3" d="M98.575 66.208 L 97.917 66.917 98.625 66.258 C 99.284 65.645,99.410 65.500,99.284 65.500 C 99.257 65.500,98.938 65.819,98.575 66.208 M94.333 69.083 C 93.928 69.496,93.635 69.833,93.681 69.833 C 93.726 69.833,94.095 69.496,94.500 69.083 C 94.905 68.671,95.199 68.333,95.153 68.333 C 95.107 68.333,94.738 68.671,94.333 69.083 M70.079 82.250 C 70.079 89.125,70.100 91.962,70.125 88.554 C 70.150 85.146,70.150 79.521,70.125 76.054 C 70.100 72.587,70.079 75.375,70.079 82.250 M71.077 71.042 C 71.033 71.156,71.016 76.275,71.040 82.417 L 71.083 93.583 82.500 93.585 L 93.917 93.587 82.539 93.542 L 71.162 93.498 71.206 82.165 C 71.230 75.933,71.229 70.833,71.203 70.833 C 71.177 70.833,71.120 70.927,71.077 71.042 M210.629 71.122 C 211.021 71.157,211.621 71.157,211.963 71.121 C 212.304 71.085,211.983 71.057,211.250 71.057 C 210.517 71.058,210.237 71.087,210.629 71.122 M120.292 72.618 C 120.498 72.657,120.835 72.657,121.042 72.618 C 121.248 72.578,121.079 72.545,120.667 72.545 C 120.254 72.545,120.085 72.578,120.292 72.618 M132.625 72.618 C 132.831 72.657,133.169 72.657,133.375 72.618 C 133.581 72.578,133.412 72.545,133.000 72.545 C 132.587 72.545,132.419 72.578,132.625 72.618 M238.532 72.624 C 239.513 72.654,241.163 72.654,242.199 72.625 C 243.235 72.595,242.433 72.571,240.417 72.571 C 238.400 72.571,237.552 72.595,238.532 72.624 M244.208 74.282 C 244.369 74.323,244.631 74.323,244.792 74.282 C 244.952 74.240,244.821 74.205,244.500 74.205 C 244.179 74.205,244.048 74.240,244.208 74.282 M247.709 74.917 C 247.711 75.283,247.745 75.414,247.785 75.206 C 247.824 74.999,247.823 74.699,247.781 74.540 C 247.739 74.380,247.707 74.550,247.709 74.917 M212.205 76.000 C 212.205 76.321,212.240 76.452,212.282 76.292 C 212.323 76.131,212.323 75.869,212.282 75.708 C 212.240 75.548,212.205 75.679,212.205 76.000 M82.540 75.957 L 88.829 76.004 88.876 82.294 L 88.923 88.583 88.920 82.250 L 88.917 75.917 82.583 75.914 L 76.250 75.910 82.540 75.957 M236.243 82.833 C 236.243 86.546,236.265 88.065,236.291 86.208 C 236.318 84.352,236.318 81.315,236.291 79.458 C 236.265 77.602,236.243 79.121,236.243 82.833 M87.908 82.250 C 87.908 85.183,87.930 86.360,87.958 84.865 C 87.986 83.369,87.986 80.969,87.958 79.531 C 87.930 78.093,87.908 79.317,87.908 82.250 M294.687 78.917 C 294.835 79.100,294.998 79.362,295.048 79.500 C 295.126 79.712,295.142 79.710,295.154 79.484 C 295.161 79.338,294.998 79.075,294.792 78.901 C 294.420 78.586,294.419 78.586,294.687 78.917 M173.205 79.500 C 173.205 79.821,173.240 79.952,173.282 79.792 C 173.323 79.631,173.323 79.369,173.282 79.208 C 173.240 79.048,173.205 79.179,173.205 79.500 M290.705 79.667 C 290.705 79.987,290.740 80.119,290.782 79.958 C 290.823 79.798,290.823 79.535,290.782 79.375 C 290.740 79.215,290.705 79.346,290.705 79.667 M245.567 82.250 C 245.567 83.625,245.593 84.165,245.624 83.451 C 245.655 82.736,245.655 81.611,245.624 80.951 C 245.592 80.290,245.566 80.875,245.567 82.250 M315.042 80.115 C 315.202 80.157,315.465 80.157,315.625 80.115 C 315.785 80.073,315.654 80.039,315.333 80.039 C 315.012 80.039,314.881 80.073,315.042 80.115 M151.714 81.917 C 151.716 82.375,151.748 82.543,151.786 82.289 C 151.825 82.036,151.824 81.661,151.784 81.456 C 151.744 81.251,151.713 81.458,151.714 81.917 M253.881 82.250 C 253.882 82.708,253.915 82.876,253.953 82.623 C 253.991 82.369,253.990 81.994,253.951 81.789 C 253.911 81.584,253.880 81.792,253.881 82.250 M317.879 82.333 C 317.879 82.746,317.911 82.915,317.951 82.708 C 317.991 82.502,317.991 82.165,317.951 81.958 C 317.911 81.752,317.879 81.921,317.879 82.333 M240.542 81.955 C 240.885 81.991,241.448 81.991,241.792 81.955 C 242.135 81.919,241.854 81.889,241.167 81.889 C 240.479 81.889,240.198 81.919,240.542 81.955 M122.875 82.121 C 123.219 82.157,123.781 82.157,124.125 82.121 C 124.469 82.085,124.188 82.056,123.500 82.056 C 122.813 82.056,122.531 82.085,122.875 82.121 M142.737 85.417 C 142.737 87.250,142.761 88.023,142.791 87.134 C 142.821 86.245,142.821 84.745,142.791 83.801 C 142.761 82.856,142.737 83.583,142.737 85.417 M140.401 84.917 C 140.401 86.383,140.427 86.961,140.457 86.200 C 140.488 85.440,140.488 84.240,140.457 83.534 C 140.426 82.828,140.401 83.450,140.401 84.917 M286.709 83.583 C 286.711 83.950,286.745 84.080,286.785 83.873 C 286.824 83.666,286.823 83.366,286.781 83.206 C 286.739 83.047,286.707 83.217,286.709 83.583 M124.375 83.625 C 125.727 83.653,127.940 83.653,129.292 83.625 C 130.644 83.597,129.537 83.574,126.833 83.574 C 124.129 83.574,123.023 83.597,124.375 83.625 M304.542 84.083 C 304.544 84.450,304.578 84.580,304.618 84.373 C 304.658 84.166,304.656 83.866,304.615 83.706 C 304.573 83.547,304.540 83.717,304.542 84.083 M271.735 86.333 C 271.735 87.846,271.760 88.465,271.791 87.708 C 271.822 86.952,271.822 85.715,271.791 84.958 C 271.760 84.202,271.735 84.821,271.735 86.333 M195.712 84.667 C 195.712 85.079,195.745 85.248,195.784 85.042 C 195.824 84.835,195.824 84.498,195.784 84.292 C 195.745 84.085,195.712 84.254,195.712 84.667 M269.400 87.000 C 269.400 88.421,269.426 89.002,269.457 88.292 C 269.488 87.581,269.488 86.419,269.457 85.708 C 269.426 84.998,269.400 85.579,269.400 87.000 M308.545 86.000 C 308.545 86.412,308.578 86.581,308.618 86.375 C 308.657 86.169,308.657 85.831,308.618 85.625 C 308.578 85.419,308.545 85.587,308.545 86.000 M216.042 88.448 C 216.202 88.490,216.465 88.490,216.625 88.448 C 216.785 88.406,216.654 88.372,216.333 88.372 C 216.012 88.372,215.881 88.406,216.042 88.448 M278.372 89.333 C 278.372 89.654,278.406 89.785,278.448 89.625 C 278.490 89.465,278.490 89.202,278.448 89.042 C 278.406 88.881,278.372 89.013,278.372 89.333 M253.872 89.500 C 253.872 89.821,253.906 89.952,253.948 89.792 C 253.990 89.631,253.990 89.369,253.948 89.208 C 253.906 89.048,253.872 89.179,253.872 89.500 M233.720 92.917 C 233.743 93.143,233.887 93.259,234.168 93.277 C 234.516 93.300,234.524 93.292,234.219 93.225 C 234.018 93.182,233.816 93.020,233.770 92.865 C 233.709 92.662,233.695 92.677,233.720 92.917 M257.886 92.915 C 257.906 93.109,258.058 93.260,258.252 93.280 C 258.492 93.305,258.506 93.291,258.302 93.230 C 258.147 93.184,257.983 93.020,257.936 92.865 C 257.876 92.661,257.862 92.674,257.886 92.915 M116.875 93.000 C 116.912 93.138,117.124 93.264,117.346 93.281 C 117.665 93.305,117.680 93.292,117.417 93.220 C 117.233 93.169,117.021 93.043,116.946 92.939 C 116.855 92.814,116.831 92.835,116.875 93.000 M144.792 93.451 C 144.998 93.491,145.335 93.491,145.542 93.451 C 145.748 93.411,145.579 93.379,145.167 93.379 C 144.754 93.379,144.585 93.411,144.792 93.451 M178.794 93.451 C 179.001 93.491,179.301 93.490,179.460 93.448 C 179.620 93.406,179.450 93.374,179.083 93.375 C 178.717 93.377,178.586 93.411,178.794 93.451 M190.211 93.453 C 190.464 93.491,190.839 93.490,191.044 93.451 C 191.249 93.411,191.042 93.380,190.583 93.381 C 190.125 93.382,189.957 93.415,190.211 93.453 M219.208 93.453 C 219.460 93.491,219.873 93.491,220.125 93.453 C 220.377 93.415,220.171 93.383,219.667 93.383 C 219.162 93.383,218.956 93.415,219.208 93.453 M279.794 93.451 C 280.001 93.491,280.301 93.490,280.460 93.448 C 280.620 93.406,280.450 93.374,280.083 93.375 C 279.717 93.377,279.586 93.411,279.794 93.451 M314.877 93.453 C 315.131 93.491,315.506 93.490,315.711 93.451 C 315.916 93.411,315.708 93.380,315.250 93.381 C 314.792 93.382,314.624 93.415,314.877 93.453 M328.544 93.453 C 328.797 93.491,329.172 93.490,329.377 93.451 C 329.582 93.411,329.375 93.380,328.917 93.381 C 328.458 93.382,328.291 93.415,328.544 93.453 M94.326 95.375 C 94.735 95.810,95.091 96.167,95.118 96.167 C 95.243 96.167,95.111 96.017,94.375 95.326 L 93.583 94.583 94.326 95.375 M98.583 98.333 C 98.941 98.700,99.272 99.000,99.318 99.000 C 99.363 99.000,99.108 98.700,98.750 98.333 C 98.392 97.967,98.062 97.667,98.016 97.667 C 97.970 97.667,98.225 97.967,98.583 98.333 " stroke="none" fill="#b0d4fc" fill-rule="evenodd"></path><path id="path4" d="M74.221 65.458 C 78.880 65.483,86.455 65.483,91.054 65.458 C 95.654 65.434,91.842 65.414,82.583 65.414 C 73.325 65.414,69.562 65.434,74.221 65.458 M66.910 66.708 C 66.866 66.823,66.850 73.892,66.874 82.417 L 66.917 97.917 81.792 97.959 C 89.973 97.983,96.667 97.938,96.667 97.860 C 96.667 97.782,96.498 97.575,96.292 97.401 L 95.917 97.083 96.234 97.458 L 96.552 97.833 81.776 97.833 L 67.000 97.833 67.000 82.250 L 67.000 66.667 81.779 66.667 L 96.558 66.667 96.154 67.125 L 95.750 67.583 96.208 67.179 C 96.460 66.957,96.667 66.713,96.667 66.638 C 96.667 66.395,67.003 66.465,66.910 66.708 M96.324 68.625 L 95.750 69.250 96.375 68.676 C 96.957 68.141,97.077 68.000,96.949 68.000 C 96.922 68.000,96.640 68.281,96.324 68.625 M212.539 71.500 C 212.539 71.821,212.573 71.952,212.615 71.792 C 212.657 71.631,212.657 71.369,212.615 71.208 C 212.573 71.048,212.539 71.179,212.539 71.500 M118.042 72.448 C 118.202 72.490,118.465 72.490,118.625 72.448 C 118.785 72.406,118.654 72.372,118.333 72.372 C 118.013 72.372,117.881 72.406,118.042 72.448 M130.375 72.448 C 130.535 72.490,130.798 72.490,130.958 72.448 C 131.119 72.406,130.987 72.372,130.667 72.372 C 130.346 72.372,130.215 72.406,130.375 72.448 M235.042 72.448 C 235.202 72.490,235.465 72.490,235.625 72.448 C 235.785 72.406,235.654 72.372,235.333 72.372 C 235.012 72.372,234.881 72.406,235.042 72.448 M240.125 74.290 C 240.698 74.323,241.635 74.323,242.208 74.290 C 242.781 74.258,242.313 74.231,241.167 74.231 C 240.021 74.231,239.552 74.258,240.125 74.290 M210.393 76.500 C 210.393 77.371,210.422 77.727,210.456 77.292 C 210.490 76.856,210.490 76.144,210.456 75.708 C 210.422 75.273,210.393 75.629,210.393 76.500 M122.042 76.250 C 122.044 76.617,122.078 76.747,122.118 76.540 C 122.158 76.332,122.156 76.032,122.115 75.873 C 122.073 75.714,122.040 75.883,122.042 76.250 M134.372 76.167 C 134.372 76.487,134.406 76.619,134.448 76.458 C 134.490 76.298,134.490 76.035,134.448 75.875 C 134.406 75.715,134.372 75.846,134.372 76.167 M238.864 79.292 C 238.847 80.690,238.890 81.833,238.958 81.834 C 239.027 81.834,239.064 81.065,239.039 80.125 C 238.959 77.019,238.895 76.715,238.864 79.292 M212.205 77.667 C 212.205 77.987,212.240 78.119,212.282 77.958 C 212.323 77.798,212.323 77.535,212.282 77.375 C 212.240 77.215,212.205 77.346,212.205 77.667 M156.875 78.615 C 157.035 78.657,157.298 78.657,157.458 78.615 C 157.619 78.573,157.487 78.539,157.167 78.539 C 156.846 78.539,156.715 78.573,156.875 78.615 M198.708 78.615 C 198.869 78.657,199.131 78.657,199.292 78.615 C 199.452 78.573,199.321 78.539,199.000 78.539 C 198.679 78.539,198.548 78.573,198.708 78.615 M250.042 78.615 C 250.202 78.657,250.465 78.657,250.625 78.615 C 250.785 78.573,250.654 78.539,250.333 78.539 C 250.012 78.539,249.881 78.573,250.042 78.615 M258.875 78.615 C 259.035 78.657,259.298 78.657,259.458 78.615 C 259.619 78.573,259.487 78.539,259.167 78.539 C 258.846 78.539,258.715 78.573,258.875 78.615 M291.708 78.615 C 291.869 78.657,292.131 78.657,292.292 78.615 C 292.452 78.573,292.321 78.539,292.000 78.539 C 291.679 78.539,291.548 78.573,291.708 78.615 M151.881 79.917 C 151.882 80.375,151.915 80.543,151.953 80.289 C 151.991 80.036,151.990 79.661,151.951 79.456 C 151.911 79.251,151.880 79.458,151.881 79.917 M254.045 80.167 C 254.045 80.579,254.078 80.748,254.118 80.542 C 254.157 80.335,254.157 79.998,254.118 79.792 C 254.078 79.585,254.045 79.754,254.045 80.167 M128.375 81.955 C 128.719 81.991,129.281 81.991,129.625 81.955 C 129.969 81.919,129.688 81.889,129.000 81.889 C 128.313 81.889,128.031 81.919,128.375 81.955 M200.072 86.000 C 200.072 88.154,200.095 89.035,200.124 87.958 C 200.153 86.881,200.153 85.119,200.124 84.042 C 200.095 82.965,200.072 83.846,200.072 86.000 M251.405 85.917 C 251.405 88.025,251.429 88.865,251.458 87.782 C 251.487 86.700,251.487 84.975,251.458 83.949 C 251.428 82.923,251.405 83.808,251.405 85.917 M149.235 85.000 C 149.235 86.513,149.260 87.131,149.291 86.375 C 149.322 85.619,149.322 84.381,149.291 83.625 C 149.260 82.869,149.235 83.487,149.235 85.000 M260.237 85.917 C 260.237 87.842,260.262 88.606,260.291 87.616 C 260.321 86.626,260.321 85.051,260.291 84.116 C 260.261 83.181,260.237 83.992,260.237 85.917 M238.901 86.333 C 238.901 87.846,238.926 88.465,238.957 87.708 C 238.988 86.952,238.988 85.715,238.957 84.958 C 238.926 84.202,238.901 84.821,238.901 86.333 M167.400 87.000 C 167.400 88.421,167.426 89.002,167.457 88.292 C 167.488 87.581,167.488 86.419,167.457 85.708 C 167.426 84.998,167.400 85.579,167.400 87.000 M202.566 86.833 C 202.566 88.162,202.592 88.706,202.624 88.042 C 202.655 87.377,202.655 86.290,202.624 85.625 C 202.592 84.960,202.566 85.504,202.566 86.833 M262.733 86.917 C 262.734 88.292,262.759 88.832,262.791 88.117 C 262.822 87.403,262.822 86.278,262.790 85.617 C 262.759 84.957,262.733 85.542,262.733 86.917 M295.567 86.917 C 295.567 88.292,295.593 88.832,295.624 88.117 C 295.655 87.403,295.655 86.278,295.624 85.617 C 295.592 84.957,295.566 85.542,295.567 86.917 M302.234 87.000 C 302.234 88.421,302.259 89.002,302.291 88.292 C 302.322 87.581,302.322 86.419,302.291 85.708 C 302.259 84.998,302.234 85.579,302.234 87.000 M160.728 86.833 C 160.728 87.796,160.756 88.190,160.790 87.708 C 160.823 87.227,160.823 86.440,160.790 85.958 C 160.756 85.477,160.728 85.871,160.728 86.833 M183.717 86.000 C 183.717 86.504,183.748 86.710,183.786 86.458 C 183.824 86.206,183.824 85.794,183.786 85.542 C 183.748 85.290,183.717 85.496,183.717 86.000 M311.383 86.000 C 311.383 86.504,311.415 86.710,311.453 86.458 C 311.491 86.206,311.491 85.794,311.453 85.542 C 311.415 85.290,311.383 85.496,311.383 86.000 M122.045 89.500 C 122.045 89.912,122.078 90.081,122.118 89.875 C 122.157 89.669,122.157 89.331,122.118 89.125 C 122.078 88.919,122.045 89.087,122.045 89.500 M271.872 90.000 C 271.872 90.321,271.906 90.452,271.948 90.292 C 271.990 90.131,271.990 89.869,271.948 89.708 C 271.906 89.548,271.872 89.679,271.872 90.000 M118.544 93.286 C 118.797 93.325,119.172 93.324,119.377 93.284 C 119.582 93.244,119.375 93.213,118.917 93.214 C 118.458 93.216,118.291 93.248,118.544 93.286 M122.125 93.287 C 122.423 93.324,122.910 93.324,123.208 93.287 C 123.506 93.250,123.263 93.220,122.667 93.220 C 122.071 93.220,121.827 93.250,122.125 93.287 M130.877 93.286 C 131.131 93.325,131.506 93.324,131.711 93.284 C 131.916 93.244,131.708 93.213,131.250 93.214 C 130.792 93.216,130.624 93.248,130.877 93.286 M134.458 93.287 C 134.756 93.324,135.244 93.324,135.542 93.287 C 135.840 93.250,135.596 93.220,135.000 93.220 C 134.404 93.220,134.160 93.250,134.458 93.287 M151.708 93.286 C 151.960 93.324,152.373 93.324,152.625 93.286 C 152.877 93.248,152.671 93.217,152.167 93.217 C 151.662 93.217,151.456 93.248,151.708 93.286 M157.544 93.286 C 157.797 93.325,158.172 93.324,158.377 93.284 C 158.582 93.244,158.375 93.213,157.917 93.214 C 157.458 93.216,157.291 93.248,157.544 93.286 M160.875 93.286 C 161.127 93.324,161.540 93.324,161.792 93.286 C 162.044 93.248,161.837 93.217,161.333 93.217 C 160.829 93.217,160.623 93.248,160.875 93.286 M166.711 93.286 C 166.964 93.325,167.339 93.324,167.544 93.284 C 167.749 93.244,167.542 93.213,167.083 93.214 C 166.625 93.216,166.457 93.248,166.711 93.286 M170.042 93.286 C 170.294 93.324,170.706 93.324,170.958 93.286 C 171.210 93.248,171.004 93.217,170.500 93.217 C 169.996 93.217,169.790 93.248,170.042 93.286 M199.377 93.286 C 199.631 93.325,200.006 93.324,200.211 93.284 C 200.416 93.244,200.208 93.213,199.750 93.214 C 199.292 93.216,199.124 93.248,199.377 93.286 M202.961 93.287 C 203.261 93.325,203.711 93.324,203.961 93.286 C 204.212 93.248,203.967 93.217,203.417 93.218 C 202.867 93.219,202.662 93.250,202.961 93.287 M235.375 93.286 C 235.627 93.324,236.040 93.324,236.292 93.286 C 236.544 93.248,236.338 93.217,235.833 93.217 C 235.329 93.217,235.123 93.248,235.375 93.286 M239.125 93.287 C 239.423 93.324,239.910 93.324,240.208 93.287 C 240.506 93.250,240.262 93.220,239.667 93.220 C 239.071 93.220,238.827 93.250,239.125 93.287 M250.711 93.286 C 250.964 93.325,251.339 93.324,251.544 93.284 C 251.749 93.244,251.542 93.213,251.083 93.214 C 250.625 93.216,250.457 93.248,250.711 93.286 M254.042 93.286 C 254.294 93.324,254.706 93.324,254.958 93.286 C 255.210 93.248,255.004 93.217,254.500 93.217 C 253.996 93.217,253.790 93.248,254.042 93.286 M259.375 93.286 C 259.627 93.324,260.040 93.324,260.292 93.286 C 260.544 93.248,260.337 93.217,259.833 93.217 C 259.329 93.217,259.123 93.248,259.375 93.286 M262.875 93.286 C 263.127 93.324,263.540 93.324,263.792 93.286 C 264.044 93.248,263.837 93.217,263.333 93.217 C 262.829 93.217,262.623 93.248,262.875 93.286 M268.625 93.284 C 268.831 93.324,269.169 93.324,269.375 93.284 C 269.581 93.245,269.412 93.212,269.000 93.212 C 268.587 93.212,268.419 93.245,268.625 93.284 M272.042 93.286 C 272.294 93.324,272.706 93.324,272.958 93.286 C 273.210 93.248,273.004 93.217,272.500 93.217 C 271.996 93.217,271.790 93.248,272.042 93.286 M286.875 93.286 C 287.127 93.324,287.540 93.324,287.792 93.286 C 288.044 93.248,287.837 93.217,287.333 93.217 C 286.829 93.217,286.623 93.248,286.875 93.286 M292.377 93.286 C 292.631 93.325,293.006 93.324,293.211 93.284 C 293.416 93.244,293.208 93.213,292.750 93.214 C 292.292 93.216,292.124 93.248,292.377 93.286 M295.708 93.286 C 295.960 93.324,296.373 93.324,296.625 93.286 C 296.877 93.248,296.671 93.217,296.167 93.217 C 295.662 93.217,295.456 93.248,295.708 93.286 M301.544 93.286 C 301.797 93.325,302.172 93.324,302.377 93.284 C 302.582 93.244,302.375 93.213,301.917 93.214 C 301.458 93.216,301.291 93.248,301.544 93.286 M304.875 93.286 C 305.127 93.324,305.540 93.324,305.792 93.286 C 306.044 93.248,305.837 93.217,305.333 93.217 C 304.829 93.217,304.623 93.248,304.875 93.286 M96.333 95.917 C 96.644 96.237,96.936 96.500,96.982 96.500 C 97.028 96.500,96.811 96.237,96.500 95.917 C 96.189 95.596,95.897 95.333,95.851 95.333 C 95.805 95.333,96.022 95.596,96.333 95.917 M74.221 99.125 C 78.880 99.150,86.455 99.150,91.054 99.125 C 95.654 99.100,91.842 99.080,82.583 99.080 C 73.325 99.080,69.562 99.100,74.221 99.125 " stroke="none" fill="#70b5fc" fill-rule="evenodd"></path></g></svg>